<?xml version="1.0" standalone="no"?>
<!DOCTYPE svg PUBLIC "-//W3C//DTD SVG 20010904//EN"
 "http://www.w3.org/TR/2001/REC-SVG-20010904/DTD/svg10.dtd">
<svg version="1.0" xmlns="http://www.w3.org/2000/svg"
 width="436.000000pt" height="66.000000pt" viewBox="0 0 436.000000 66.000000"
 preserveAspectRatio="xMidYMid meet">

<g transform="translate(0.000000,66.000000) scale(0.100000,-0.100000)"
fill="#000000" stroke="none">
<path d="M850 551 c0 -10 7 -21 15 -25 12 -4 15 -31 15 -151 0 -122 -2 -145
-15 -145 -8 0 -15 -9 -15 -20 0 -18 7 -20 65 -20 58 0 65 2 65 20 0 11 -7 20
-15 20 -12 0 -15 16 -15 80 0 75 2 81 26 97 45 29 59 10 62 -91 2 -72 0 -86
-13 -86 -8 0 -15 -9 -15 -20 0 -18 7 -20 65 -20 58 0 65 2 65 20 0 11 -7 20
-15 20 -12 0 -15 16 -15 83 0 92 -13 126 -53 145 -27 13 -39 12 -97 -12 -13
-5 -14 4 -12 59 l4 65 -51 0 c-43 0 -51 -3 -51 -19z"/>
<path d="M2090 550 c0 -11 7 -23 15 -26 12 -5 15 -31 15 -150 0 -121 -2 -144
-15 -144 -8 0 -15 -9 -15 -20 0 -18 7 -20 65 -20 58 0 65 2 65 20 0 11 -7 20
-15 20 -24 0 -21 151 3 173 22 20 46 22 60 5 12 -16 15 -35 13 -115 -1 -49 -4
-63 -16 -63 -8 0 -15 -9 -15 -20 0 -18 7 -20 65 -20 58 0 65 2 65 20 0 11 -7
20 -15 20 -12 0 -15 16 -15 83 0 46 -6 93 -13 107 -19 37 -56 52 -100 39 -20
-5 -40 -9 -44 -7 -3 2 -5 29 -4 61 l2 57 -50 0 c-45 0 -51 -3 -51 -20z"/>
<path d="M348 548 c-24 -8 -28 -15 -28 -49 0 -37 2 -39 30 -39 26 0 30 4 30
26 0 23 3 25 33 22 50 -5 49 -40 -2 -87 -37 -34 -41 -43 -41 -84 0 -43 2 -47
24 -47 25 0 36 16 36 52 0 12 18 38 40 58 34 31 40 43 40 78 0 32 -6 45 -26
61 -29 23 -89 27 -136 9z"/>
<path d="M3882 549 c-31 -9 -33 -13 -30 -47 3 -32 7 -37 30 -40 21 -3 27 1 30
20 2 18 9 23 33 23 25 0 31 -4 33 -26 2 -19 -5 -33 -25 -49 -38 -29 -52 -58
-53 -102 0 -36 2 -38 30 -38 27 0 30 3 30 33 0 26 9 43 40 75 33 34 40 47 40
80 0 70 -63 98 -158 71z"/>
<path d="M3341 536 c-80 -29 -120 -133 -91 -238 28 -98 119 -136 243 -102 13
4 17 16 17 55 0 46 -2 49 -25 49 -21 0 -25 -5 -25 -30 0 -29 -1 -30 -48 -30
-66 0 -94 29 -100 104 -6 72 12 122 49 142 46 23 83 15 87 -18 3 -24 8 -28 33
-28 28 0 29 2 29 44 0 40 -3 45 -31 55 -41 14 -95 13 -138 -3z"/>
<path d="M3588 543 c-25 -6 -26 -110 -2 -120 23 -8 34 14 34 69 0 50 -5 57
-32 51z"/>
<path d="M3650 484 c0 -57 2 -64 20 -64 17 0 20 7 20 44 0 24 3 51 6 59 3 10
-3 16 -20 19 -26 5 -26 4 -26 -58z"/>
<path d="M2812 483 c3 -50 6 -58 23 -58 17 0 20 8 23 58 3 56 2 57 -23 57 -25
0 -26 -1 -23 -57z"/>
<path d="M2890 481 c0 -54 2 -61 20 -61 17 0 20 7 20 50 0 28 1 53 3 58 1 4
-8 8 -20 10 -22 3 -23 0 -23 -57z"/>
<path d="M3070 520 c0 -13 7 -20 20 -20 20 0 20 -5 18 -127 l-3 -128 -32 -3
c-31 -3 -33 -1 -33 27 0 28 -3 31 -30 31 -29 0 -30 -1 -30 -49 l0 -49 48 -11
c60 -15 120 2 139 39 8 16 13 69 13 148 0 102 2 122 15 122 8 0 15 9 15 20 0
18 -7 20 -70 20 -63 0 -70 -2 -70 -20z"/>
<path d="M138 424 c-118 -60 -117 -69 7 -132 81 -40 97 -45 105 -32 18 28 10
38 -55 66 -36 16 -65 31 -65 34 0 4 28 19 63 35 34 16 64 30 65 31 9 5 -11 44
-21 43 -7 0 -51 -20 -99 -45z"/>
<path d="M687 460 c-16 -5 -35 -14 -43 -21 -11 -9 -14 -8 -14 5 0 12 -10 16
-45 16 -39 0 -45 -3 -45 -21 0 -12 8 -23 20 -26 19 -5 20 -14 20 -145 0 -131
-1 -140 -20 -145 -11 -3 -20 -14 -20 -24 0 -17 8 -19 70 -19 63 0 70 2 70 20
0 13 -7 20 -20 20 -16 0 -20 7 -20 35 0 35 1 36 33 30 80 -15 137 45 137 143
0 73 -17 112 -56 128 -18 8 -35 14 -36 13 -2 0 -16 -5 -31 -9z m40 -62 c31
-40 20 -138 -18 -159 -12 -6 -32 -8 -45 -5 -23 6 -24 11 -24 79 0 43 5 78 12
85 16 16 63 15 75 0z"/>
<path d="M1287 451 c-30 -15 -37 -16 -37 -4 0 23 -84 14 -88 -10 -3 -12 4 -20
17 -24 20 -5 21 -12 21 -144 0 -115 -3 -141 -15 -145 -8 -4 -15 -15 -15 -25 0
-17 8 -19 65 -19 58 0 65 2 65 20 0 13 -7 20 -20 20 -16 0 -20 7 -20 35 0 35
1 36 33 30 46 -9 102 16 121 54 18 34 21 136 6 176 -6 15 -24 32 -45 40 -43
19 -43 19 -88 -4z m64 -58 c8 -9 14 -39 14 -69 0 -68 -26 -100 -74 -89 -31 7
-31 7 -31 71 0 36 5 74 10 85 13 24 62 25 81 2z"/>
<path d="M1676 460 c-65 -20 -104 -93 -91 -171 14 -82 80 -122 164 -99 45 12
54 21 45 45 -5 12 -13 15 -33 9 -43 -13 -83 -8 -98 12 -22 30 -15 41 32 46 79
9 116 51 101 114 -4 16 -19 30 -41 40 -38 16 -39 16 -79 4z m62 -66 c4 -25
-15 -42 -56 -50 -27 -6 -32 -3 -32 13 0 10 7 29 16 41 21 30 68 27 72 -4z"/>
<path d="M1920 457 c-99 -34 -110 -216 -15 -261 41 -20 66 -20 110 -2 36 15
40 22 27 43 -6 10 -16 10 -44 1 -31 -9 -41 -8 -62 5 -29 20 -43 87 -27 130 19
49 91 63 91 17 0 -16 5 -21 23 -18 17 2 23 10 25 39 3 35 2 37 -42 48 -25 6
-46 11 -48 10 -2 0 -19 -5 -38 -12z"/>
<path d="M2500 460 c-66 -16 -99 -83 -86 -174 13 -83 89 -126 165 -91 51 22
74 65 74 134 0 31 -5 66 -12 79 -23 44 -81 65 -141 52z m77 -70 c18 -35 16
-111 -3 -138 -18 -26 -56 -29 -78 -6 -15 14 -21 56 -16 114 5 59 72 80 97 30z"/>
<path d="M4110 450 c-10 -18 -4 -23 62 -53 l73 -34 -73 -37 c-65 -33 -71 -38
-62 -56 6 -11 15 -20 21 -20 5 0 50 20 99 45 68 34 90 50 90 65 0 15 -22 31
-90 65 -49 25 -94 45 -99 45 -6 0 -15 -9 -21 -20z"/>
<path d="M370 235 c-18 -22 -1 -50 31 -50 20 0 24 5 24 30 0 23 -5 31 -21 33
-11 2 -27 -4 -34 -13z"/>
<path d="M3901 231 c-13 -24 8 -55 34 -50 28 6 42 34 26 53 -18 22 -48 20 -60
-3z"/>
</g>
</svg>
