<?xml version="1.0" standalone="no"?>
<!DOCTYPE svg PUBLIC "-//W3C//DTD SVG 20010904//EN"
 "http://www.w3.org/TR/2001/REC-SVG-20010904/DTD/svg10.dtd">
<svg version="1.0" xmlns="http://www.w3.org/2000/svg"
 width="500.000000pt" height="500.000000pt" viewBox="0 0 500.000000 500.000000"
 preserveAspectRatio="xMidYMid meet">

<g transform="translate(0.000000,500.000000) scale(0.100000,-0.100000)"
fill="#000000" stroke="none">
<path d="M2295 3759 c-95 -14 -232 -57 -331 -103 -351 -166 -598 -464 -701
-846 -34 -129 -44 -379 -19 -523 39 -229 127 -417 286 -612 186 -227 492 -396
789 -436 138 -19 375 -6 494 25 253 67 479 205 639 389 215 249 318 522 318
842 0 328 -99 595 -313 846 -185 216 -481 379 -762 419 -83 12 -316 11 -400
-1z m405 -130 c135 -21 315 -94 443 -181 86 -58 254 -228 312 -318 134 -206
192 -423 182 -678 -13 -336 -165 -635 -430 -847 -196 -157 -450 -245 -707
-245 -333 0 -609 121 -843 370 -124 133 -217 300 -268 485 -27 98 -38 374 -19
483 51 301 235 583 497 760 100 67 251 132 382 164 104 24 316 28 451 7z"/>
<path d="M2317 3223 c-4 -3 -7 -142 -7 -308 0 -289 -1 -303 -20 -328 -14 -18
-34 -28 -65 -33 -43 -6 -45 -7 -45 -41 l0 -35 60 4 c69 5 106 27 132 79 16 30
18 69 18 352 l0 317 -33 0 c-19 0 -37 -3 -40 -7z"/>
<path d="M2550 3212 c-71 -39 -75 -55 -78 -347 -3 -254 -2 -261 20 -304 34
-66 67 -86 141 -86 117 1 167 60 167 198 l0 77 -37 0 -38 0 -1 -71 c-2 -105
-40 -145 -121 -124 -46 11 -53 52 -53 302 0 164 4 235 13 253 27 54 112 63
143 15 8 -13 16 -50 17 -84 l2 -61 38 0 37 0 0 68 c-1 120 -46 174 -153 180
-47 2 -70 -1 -97 -16z"/>
<path d="M2556 2139 c-38 -30 -59 -75 -52 -114 5 -24 34 -59 110 -135 57 -56
107 -102 111 -102 17 -1 194 174 209 207 23 49 14 95 -26 134 -26 26 -40 31
-77 31 -29 0 -57 -8 -75 -19 -29 -19 -30 -19 -54 0 -34 27 -111 26 -146 -2z"/>
<path d="M1958 2108 c-22 -18 -33 -68 -14 -68 8 0 16 10 18 23 4 30 44 36 53
7 4 -13 -2 -36 -19 -65 -29 -49 -33 -75 -11 -75 8 0 15 8 15 18 0 9 9 31 20
47 26 40 27 101 1 115 -26 13 -44 13 -63 -2z"/>
<path d="M2070 1995 c0 -72 4 -125 9 -125 6 0 11 21 13 48 3 43 5 47 31 50 38
5 61 42 54 90 -8 44 -29 62 -74 62 l-33 0 0 -125z m78 48 c3 -34 0 -42 -17
-48 -32 -10 -41 2 -41 51 0 44 1 45 28 42 24 -3 27 -8 30 -45z"/>
<path d="M2200 1995 c0 -77 4 -125 10 -125 6 0 10 25 10 55 0 54 0 55 30 55
30 0 30 -1 30 -55 0 -42 3 -55 15 -55 13 0 15 21 15 126 0 96 -3 125 -12 122
-8 -3 -14 -26 -16 -56 -3 -50 -4 -52 -33 -52 -29 0 -29 1 -29 55 0 30 -4 55
-10 55 -6 0 -10 -48 -10 -125z"/>
<path d="M2340 1995 c0 -104 2 -125 15 -125 11 0 15 12 15 50 0 49 1 50 30 50
35 0 50 23 50 74 0 47 -29 76 -75 76 l-35 0 0 -125z m78 51 c3 -38 -8 -56 -35
-56 -9 0 -13 17 -13 51 0 47 2 50 23 47 18 -2 23 -10 25 -42z"/>
<path d="M2976 2104 c-17 -16 -22 -64 -7 -64 5 0 12 12 15 26 5 19 12 25 29
22 32 -4 33 -40 2 -93 -15 -25 -24 -52 -21 -61 7 -18 26 -9 26 13 0 8 10 29
22 46 25 34 29 87 9 111 -17 20 -55 21 -75 0z"/>
<path d="M1853 2025 c-29 -13 -53 -29 -53 -34 0 -6 2 -11 5 -11 2 0 27 -9 55
-20 27 -11 50 -15 50 -10 0 6 -19 18 -42 27 l-42 17 42 17 c23 10 42 23 42 29
0 12 6 14 -57 -15z"/>
<path d="M3090 2039 c0 -6 18 -18 41 -28 l40 -18 -40 -17 c-23 -9 -41 -21 -41
-27 0 -6 3 -9 8 -7 4 2 29 12 55 22 26 10 46 23 44 29 -4 14 -107 58 -107 46z"/>
<path d="M1970 1885 c0 -8 7 -15 15 -15 8 0 15 7 15 15 0 8 -7 15 -15 15 -8 0
-15 -7 -15 -15z"/>
<path d="M2990 1885 c0 -8 7 -15 15 -15 8 0 15 7 15 15 0 8 -7 15 -15 15 -8 0
-15 -7 -15 -15z"/>
</g>
</svg>
